# Created by Metasequoia

mtllib rail_sleeper.mtl

v -1.168682 0.000289 -0.105664
v -1.168682 0.089615 -0.100796
v -1.168682 0.000289 0.105665
v -1.168682 0.089615 0.100797
v -0.571999 0.089621 -0.100804
v -0.334888 0.000229 0.105668
v -0.334888 0.073059 0.100800
v -0.571999 0.089621 0.100804
v -0.334888 0.000229 -0.105668
v -0.571999 0.000168 -0.105672
v -0.571998 0.000168 0.105672
v -0.334888 0.073059 -0.100800
v -0.819777 0.089923 -0.300000
v -0.819777 0.089923 0.300000
v -0.819777 0.104559 -0.300000
v -0.819777 0.104559 0.300000
v -0.768084 0.123359 0.300000
v -0.768084 0.123358 -0.300000
v -0.763598 0.216794 0.300000
v -0.763598 0.216793 -0.300000
v -0.787183 0.231684 0.300000
v -0.787183 0.231684 -0.300000
v -0.787183 0.265338 0.300000
v -0.787183 0.265338 -0.300000
v -0.684244 0.089923 -0.300000
v -0.684244 0.089923 0.300000
v -0.684244 0.104559 -0.300000
v -0.684244 0.104559 0.300000
v -0.735937 0.123359 0.300000
v -0.735937 0.123358 -0.300000
v -0.740424 0.216794 0.300000
v -0.740424 0.216793 -0.300000
v -0.716838 0.231684 0.300000
v -0.716839 0.231684 -0.300000
v -0.716838 0.265338 0.300000
v -0.716839 0.265338 -0.300000
v -0.603949 0.110116 0.049039
v -0.603949 0.110116 -0.049039
v -0.904033 0.110116 -0.049039
v -0.904033 0.110116 0.049039
v -0.904033 0.085860 0.049039
v -0.904033 0.085860 -0.049039
v -0.603949 0.085860 -0.049039
v -0.603949 0.085860 0.049039
v -0.849474 0.101738 -0.020275
v -0.849474 0.127835 -0.020275
v -0.829415 0.101738 -0.003580
v -0.829415 0.127835 -0.003580
v -0.866169 0.101738 -0.000216
v -0.866169 0.127835 -0.000216
v -0.846110 0.101738 0.016479
v -0.846110 0.127835 0.016479
v -0.659600 0.101738 -0.020348
v -0.659600 0.127835 -0.020348
v -0.640790 0.101738 -0.002258
v -0.640790 0.127835 -0.002258
v -0.677690 0.101738 -0.001538
v -0.677690 0.127835 -0.001538
v -0.658880 0.101738 0.016552
v -0.658880 0.127835 0.016552
v 1.168682 0.000289 -0.105665
v 1.168682 0.089615 -0.100797
v 1.168682 0.000289 0.105664
v 1.168682 0.089615 0.100796
v 0.571999 0.089621 -0.100804
v 0.334888 0.000229 0.105668
v 0.334888 0.073059 0.100800
v 0.571999 0.089621 0.100804
v 0.334888 0.000229 -0.105668
v 0.571998 0.000168 -0.105672
v 0.571999 0.000168 0.105672
v 0.334888 0.073059 -0.100800
v 0.819777 0.089923 -0.300000
v 0.819777 0.089923 0.300000
v 0.819777 0.104559 -0.300000
v 0.819777 0.104559 0.300000
v 0.768084 0.123359 0.300000
v 0.768084 0.123358 -0.300000
v 0.763598 0.216794 0.300000
v 0.763598 0.216793 -0.300000
v 0.787183 0.231684 0.300000
v 0.787183 0.231684 -0.300000
v 0.787183 0.265338 0.300000
v 0.787183 0.265338 -0.300000
v 0.684244 0.089923 -0.300000
v 0.684244 0.089923 0.300000
v 0.684244 0.104559 -0.300000
v 0.684244 0.104559 0.300000
v 0.735937 0.123359 0.300000
v 0.735937 0.123358 -0.300000
v 0.740424 0.216794 0.300000
v 0.740424 0.216793 -0.300000
v 0.716839 0.231684 0.300000
v 0.716838 0.231684 -0.300000
v 0.716839 0.265338 0.300000
v 0.716838 0.265338 -0.300000
v 0.603949 0.110116 0.049038
v 0.603949 0.110116 -0.049039
v 0.904033 0.110116 -0.049039
v 0.904033 0.110116 0.049038
v 0.904033 0.085860 0.049038
v 0.904033 0.085860 -0.049039
v 0.603949 0.085860 -0.049039
v 0.603949 0.085860 0.049038
v 0.849474 0.101738 -0.020276
v 0.849474 0.127835 -0.020276
v 0.829415 0.101738 -0.003581
v 0.829415 0.127835 -0.003581
v 0.866169 0.101738 -0.000217
v 0.866169 0.127835 -0.000217
v 0.846110 0.101738 0.016478
v 0.846110 0.127835 0.016478
v 0.659600 0.101738 -0.020349
v 0.659600 0.127835 -0.020349
v 0.640790 0.101738 -0.002259
v 0.640790 0.127835 -0.002259
v 0.677690 0.101738 -0.001539
v 0.677690 0.127835 -0.001539
v 0.658880 0.101738 0.016551
v 0.658880 0.127835 0.016551
v -1.895417 -0.004552 -0.312500
v -1.895417 -0.004552 0.312500
v 0.000000 0.030298 0.312500
v -0.000000 0.025642 -0.312500
v -0.875000 0.047165 0.312500
v -0.875000 0.047165 -0.312500
v -2.504386 -1.022159 -0.312498
v -2.504386 -1.022159 0.312502
v 1.895417 -0.004552 -0.312501
v 1.895417 -0.004552 0.312499
v 0.875000 0.047165 0.312499
v 0.875000 0.047165 -0.312501
v 2.504386 -1.022159 -0.312500
v 2.504386 -1.022159 0.312500
v -1.895417 -0.001552 0.000000
v -0.875000 0.050164 0.000000
v 0.000000 0.028642 0.000000
v -2.504386 -1.019160 0.000002
v 1.895417 -0.001552 -0.000001
v 0.875000 0.050164 -0.000000
v 2.504386 -1.019160 0.000000
# 141 vertices

vt 0.23750 0.52781
vt 0.00049 0.52779
vt 0.00049 0.49225
vt 0.23750 0.49223
vt 0.03597 0.99951
vt 0.00049 0.99757
vt 0.00049 0.91749
vt 0.03597 0.91556
vt 0.33180 0.53404
vt 0.59784 0.53404
vt 0.59784 0.56303
vt 0.33180 0.56303
vt 0.63328 0.99951
vt 0.36721 0.99951
vt 0.36721 0.91555
vt 0.63328 0.91555
vt 0.23750 0.53074
vt 0.23750 0.56633
vt 0.00049 0.56630
vt 0.00049 0.53077
vt 0.33180 0.49552
vt 0.59784 0.49552
vt 0.59784 0.52452
vt 0.33180 0.52452
vt 0.27301 0.99951
vt 0.27301 0.91555
vt 0.69214 0.49223
vt 0.69214 0.52781
vt 0.23753 0.83253
vt 0.33195 0.83253
vt 0.33195 0.91262
vt 0.23753 0.91262
vt 0.00049 0.83253
vt 0.00049 0.91262
vt 0.35900 0.59124
vt 0.41284 0.59124
vt 0.41284 0.82960
vt 0.35900 0.82960
vt 0.35318 0.82960
vt 0.35318 0.59124
vt 0.33133 0.82960
vt 0.29417 0.82960
vt 0.29417 0.59124
vt 0.33133 0.59124
vt 0.47767 0.59124
vt 0.48875 0.59124
vt 0.48875 0.82960
vt 0.47767 0.82960
vt 0.26972 0.82960
vt 0.26972 0.59124
vt 0.28309 0.59124
vt 0.28309 0.82960
vt 0.41865 0.59124
vt 0.41865 0.82960
vt 0.44050 0.59124
vt 0.44050 0.82960
vt 0.24178 0.82960
vt 0.24178 0.59124
vt 0.50211 0.59124
vt 0.50212 0.82960
vt 0.51468 0.70075
vt 0.55365 0.70075
vt 0.55365 0.81996
vt 0.51468 0.81996
vt 0.56328 0.81996
vt 0.56328 0.70075
vt 0.51468 0.82960
vt 0.55365 0.82960
vt 0.55365 0.69112
vt 0.51468 0.69112
vt 0.50505 0.70075
vt 0.50505 0.81996
vt 0.57605 0.60628
vt 0.58642 0.60628
vt 0.58642 0.61665
vt 0.57605 0.61665
vt 0.57605 0.59592
vt 0.58642 0.59592
vt 0.57605 0.58555
vt 0.58642 0.58555
vt 0.58642 0.62702
vt 0.57605 0.62702
vt 0.59678 0.59592
vt 0.59678 0.60628
vt 0.50505 0.60628
vt 0.51541 0.60628
vt 0.51541 0.61665
vt 0.50505 0.61665
vt 0.50505 0.59592
vt 0.51541 0.59592
vt 0.50505 0.58555
vt 0.51541 0.58555
vt 0.51541 0.62702
vt 0.50505 0.62702
vt 0.52578 0.58555
vt 0.52578 0.59592
vt 1.00000 0.91749
vt 1.00000 0.99757
vt 0.96451 0.99951
vt 0.96451 0.91556
vt 0.92914 0.56630
vt 0.69214 0.56633
vt 0.69214 0.53074
vt 0.92914 0.53077
vt 0.72748 0.91555
vt 0.72748 0.99951
vt 0.92914 0.49225
vt 0.92914 0.52779
vt 0.59803 0.91262
vt 0.59803 0.83253
vt 0.69245 0.83253
vt 0.69245 0.91262
vt 0.92949 0.83253
vt 0.92949 0.91262
vt 0.00049 0.65854
vt 0.23884 0.65854
vt 0.23884 0.71238
vt 0.00049 0.71238
vt 0.23884 0.71819
vt 0.00049 0.71819
vt 0.23884 0.77720
vt 0.00049 0.77720
vt 0.00049 0.74004
vt 0.23884 0.74004
vt 0.00049 0.58263
vt 0.23884 0.58263
vt 0.23884 0.59371
vt 0.00049 0.59371
vt 0.23884 0.78828
vt 0.23884 0.80165
vt 0.00049 0.80165
vt 0.00049 0.78828
vt 0.00049 0.65272
vt 0.23884 0.65272
vt 0.23884 0.63087
vt 0.00049 0.63087
vt 0.00049 0.82960
vt 0.23884 0.82960
vt 0.00049 0.56926
vt 0.23884 0.56926
vt 0.51468 0.63959
vt 0.63389 0.63959
vt 0.63389 0.67855
vt 0.51468 0.67855
vt 0.51468 0.62995
vt 0.63389 0.62995
vt 0.50505 0.67855
vt 0.50505 0.63959
vt 0.64353 0.63959
vt 0.64353 0.67855
vt 0.63389 0.68818
vt 0.51468 0.68818
vt 0.56275 0.59592
vt 0.56275 0.60628
vt 0.55238 0.60628
vt 0.55238 0.59592
vt 0.56275 0.61665
vt 0.55238 0.61665
vt 0.56275 0.62702
vt 0.55238 0.62702
vt 0.56275 0.58555
vt 0.55238 0.58555
vt 0.57312 0.60628
vt 0.57312 0.61665
vt 0.53908 0.59591
vt 0.53908 0.60628
vt 0.52871 0.60628
vt 0.52871 0.59591
vt 0.53908 0.61665
vt 0.52871 0.61665
vt 0.53908 0.62702
vt 0.52871 0.62702
vt 0.53908 0.58555
vt 0.52871 0.58555
vt 0.54945 0.61665
vt 0.54945 0.62702
vt 0.35789 0.10611
vt 0.19183 0.10609
vt 0.19205 0.05540
vt 0.35790 0.05537
vt 0.35788 0.00463
vt 0.50001 0.00460
vt 0.50001 0.05535
vt 0.00154 0.10616
vt 0.00194 0.05543
vt 0.80797 0.05540
vt 0.80818 0.10609
vt 0.64212 0.10611
vt 0.64211 0.05537
vt 0.64214 0.00463
vt 0.99847 0.10616
vt 0.99808 0.05543
vt 0.80820 0.00471
vt 0.99849 0.00469
vt 0.50001 0.10610
vt 0.19182 0.00471
vt 0.00152 0.00469
# 197 texture vertices

usemtl Material2
f 71/4 63/3 64/2 68/1
f 3/8 4/7 2/6 1/5
f 12/12 72/11 69/10 9/9
f 66/16 6/15 9/14 69/13
f 1/20 2/19 5/18 10/17
f 67/24 7/23 6/22 66/21
f 6/15 11/26 10/25 9/14
f 6/22 7/23 8/28 11/27
f 8/32 7/31 12/30 5/29
f 10/17 5/18 12/12 9/9
f 11/26 3/8 1/5 10/25
f 4/34 8/32 5/29 2/33
f 13/38 25/37 26/36 14/35
f 13/38 14/35 16/40 15/39
f 17/44 19/43 20/42 18/41
f 32/48 34/47 33/46 31/45
f 16/40 17/44 18/41 15/39
f 22/52 21/51 23/50 24/49
f 25/37 27/54 28/53 26/36
f 30/56 32/48 31/45 29/55
f 30/56 29/55 28/53 27/54
f 35/58 36/57 24/49 23/50
f 34/47 36/60 35/59 33/46
f 19/43 21/51 22/52 20/42
f 37/64 38/63 39/62 40/61
f 42/66 39/62 38/63 43/65
f 43/68 38/63 37/64 44/67
f 41/70 40/61 39/62 42/69
f 44/72 37/64 40/61 41/71
f 45/76 46/75 48/74 47/73
f 47/73 48/74 52/78 51/77
f 51/77 52/78 50/80 49/79
f 49/82 50/81 46/75 45/76
f 52/78 48/74 46/84 50/83
f 53/88 54/87 56/86 55/85
f 55/85 56/86 60/90 59/89
f 59/89 60/90 58/92 57/91
f 57/94 58/93 54/87 53/88
f 60/90 56/96 54/95 58/92
f 63/100 61/99 62/98 64/97
f 61/104 70/103 65/102 62/101
f 66/16 69/13 70/106 71/105
f 66/21 71/4 68/1 67/24
f 8/28 4/108 3/107 11/27
f 68/112 65/111 72/110 67/109
f 70/103 69/10 72/11 65/102
f 70/106 61/99 63/100 71/105
f 64/114 62/113 65/111 68/112
f 73/118 74/117 86/116 85/115
f 73/118 75/120 76/119 74/117
f 77/124 78/123 80/122 79/121
f 92/128 91/127 93/126 94/125
f 76/119 75/120 78/123 77/124
f 82/132 84/131 83/130 81/129
f 85/115 86/116 88/134 87/133
f 90/136 89/135 91/127 92/128
f 90/136 87/133 88/134 89/135
f 95/138 83/130 84/131 96/137
f 94/125 93/126 95/140 96/139
f 79/121 80/122 82/132 81/129
f 97/144 100/143 99/142 98/141
f 102/146 103/145 98/141 99/142
f 103/148 104/147 97/144 98/141
f 101/150 102/149 99/142 100/143
f 104/152 101/151 100/143 97/144
f 105/156 107/155 108/154 106/153
f 107/155 111/158 112/157 108/154
f 111/158 109/160 110/159 112/157
f 109/162 105/156 106/153 110/161
f 112/157 110/164 106/163 108/154
f 113/168 115/167 116/166 114/165
f 115/167 119/170 120/169 116/166
f 119/170 117/172 118/171 120/169
f 117/174 113/168 114/165 118/173
f 120/169 118/171 114/176 116/175
f 7/31 67/109 72/110 12/30
f 136/180 135/179 122/178 125/177
f 136/180 137/183 124/182 126/181
f 138/185 128/184 122/178 135/179
f 140/189 131/188 130/187 139/186
f 140/189 132/190 124/182 137/183
f 141/192 139/186 130/187 134/191
f 133/194 129/193 139/186 141/192
f 131/188 140/189 137/183 123/195
f 132/190 140/189 139/186 129/193
f 127/197 138/185 135/179 121/196
f 125/177 123/195 137/183 136/180
f 126/181 121/196 135/179 136/180
# 88 elements

