# Created by Metasequoia

mtllib rail_siding.mtl

v 0.819777 0.089923 -0.300000
v 0.819777 0.089923 0.300000
v 0.819777 0.104559 -0.300000
v 0.819777 0.104559 0.300000
v 0.768084 0.123359 0.300000
v 0.768084 0.123358 -0.300000
v 0.763598 0.216794 0.300000
v 0.763598 0.216794 -0.300000
v 0.787183 0.231684 0.300000
v 0.787183 0.231684 -0.300000
v 0.787183 0.265338 0.300000
v 0.787183 0.265338 -0.300000
v 0.684244 0.089923 -0.300000
v 0.684244 0.089923 0.300000
v 0.684244 0.104559 -0.300000
v 0.684244 0.104559 0.300000
v 0.735938 0.123359 0.300000
v 0.735937 0.123358 -0.300000
v 0.740424 0.216794 0.300000
v 0.740424 0.216794 -0.300000
v 0.716839 0.231684 0.300000
v 0.716838 0.231684 -0.300000
v 0.716839 0.265338 0.300000
v 0.716838 0.265338 -0.300000
v 0.636543 0.114024 -0.034052
v 0.636543 0.114024 0.034052
v 0.871439 0.114024 0.034051
v 0.871439 0.114024 -0.034053
v 0.871439 0.085860 -0.034053
v 0.871439 0.085860 0.034051
v 0.636543 0.085860 0.034052
v 0.636543 0.085860 -0.034052
v 0.841118 0.105646 -0.017356
v 0.841118 0.131743 -0.017356
v 0.824246 0.105646 -0.003314
v 0.824246 0.131743 -0.003314
v 0.855161 0.105646 -0.000484
v 0.855161 0.131743 -0.000484
v 0.838288 0.105646 0.013559
v 0.838288 0.131743 0.013559
v 0.668710 0.105646 -0.017418
v 0.668710 0.131743 -0.017418
v 0.652888 0.105646 -0.002201
v 0.652888 0.131743 -0.002201
v 0.683926 0.105646 -0.001596
v 0.683926 0.131743 -0.001596
v 0.668104 0.105646 0.013621
v 0.668104 0.131743 0.013621
v 0.607910 -0.990000 0.090830
v 0.607910 0.099422 0.090830
v 0.607910 -0.990000 -0.090834
v 0.607910 0.099422 -0.090834
v 0.910393 -0.990000 0.090830
v 0.910393 0.099422 0.090830
v 0.910393 -0.990000 -0.090834
v 0.910393 0.099422 -0.090834
v -0.819777 0.089923 -0.300000
v -0.819777 0.089923 0.300000
v -0.819777 0.104559 -0.300000
v -0.819777 0.104559 0.300000
v -0.768084 0.123359 0.300000
v -0.768084 0.123358 -0.300000
v -0.763598 0.216794 0.300000
v -0.763598 0.216794 -0.300000
v -0.787183 0.231684 0.300000
v -0.787183 0.231684 -0.300000
v -0.787183 0.265338 0.300000
v -0.787183 0.265338 -0.300000
v -0.684244 0.089923 -0.300000
v -0.684244 0.089923 0.300000
v -0.684244 0.104559 -0.300000
v -0.684244 0.104559 0.300000
v -0.735937 0.123359 0.300000
v -0.735938 0.123358 -0.300000
v -0.740424 0.216794 0.300000
v -0.740424 0.216794 -0.300000
v -0.716838 0.231684 0.300000
v -0.716839 0.231684 -0.300000
v -0.716838 0.265338 0.300000
v -0.716839 0.265338 -0.300000
v -0.636543 0.114024 -0.034052
v -0.636543 0.114024 0.034052
v -0.871439 0.114024 0.034052
v -0.871439 0.114024 -0.034052
v -0.871439 0.085860 -0.034052
v -0.871439 0.085860 0.034052
v -0.636543 0.085860 0.034052
v -0.636543 0.085860 -0.034052
v -0.841118 0.105646 -0.017356
v -0.841118 0.131743 -0.017356
v -0.824246 0.105646 -0.003313
v -0.824246 0.131743 -0.003313
v -0.855161 0.105646 -0.000483
v -0.855161 0.131743 -0.000483
v -0.838288 0.105646 0.013559
v -0.838288 0.131743 0.013559
v -0.668710 0.105646 -0.017418
v -0.668710 0.131743 -0.017418
v -0.652888 0.105646 -0.002201
v -0.652888 0.131743 -0.002201
v -0.683926 0.105646 -0.001596
v -0.683926 0.131743 -0.001596
v -0.668104 0.105646 0.013621
v -0.668104 0.131743 0.013621
v -0.607910 -0.990000 0.090831
v -0.607910 0.099422 0.090831
v -0.607910 -0.990000 -0.090833
v -0.607910 0.099422 -0.090833
v -0.910393 -0.990000 0.090831
v -0.910393 0.099422 0.090831
v -0.910393 -0.990000 -0.090833
v -0.910393 0.099422 -0.090833
# 112 vertices

vt 0.73915 0.75120
vt 0.73915 0.45957
vt 0.80502 0.45957
vt 0.80502 0.75120
vt 0.81214 0.45957
vt 0.81214 0.75120
vt 0.88434 0.45957
vt 0.88434 0.75120
vt 0.83887 0.75120
vt 0.83887 0.45957
vt 0.64628 0.75120
vt 0.64628 0.45957
vt 0.65983 0.45957
vt 0.65983 0.75120
vt 0.89789 0.45957
vt 0.91425 0.45957
vt 0.91425 0.75120
vt 0.89789 0.75120
vt 0.73204 0.75120
vt 0.73203 0.45957
vt 0.70530 0.45957
vt 0.70530 0.75120
vt 0.94844 0.75120
vt 0.94844 0.45957
vt 0.62992 0.75120
vt 0.62992 0.45957
vt 0.01402 0.62334
vt 0.04712 0.62334
vt 0.04712 0.73751
vt 0.01402 0.73751
vt 0.06081 0.73751
vt 0.06081 0.62334
vt 0.01402 0.75120
vt 0.04712 0.75120
vt 0.04712 0.60965
vt 0.01402 0.60965
vt 0.00033 0.62334
vt 0.00033 0.73751
vt 0.07544 0.71919
vt 0.07544 0.72986
vt 0.06276 0.72986
vt 0.06276 0.71919
vt 0.07544 0.74053
vt 0.06276 0.74053
vt 0.07544 0.75120
vt 0.06276 0.75120
vt 0.07544 0.70852
vt 0.06276 0.70852
vt 0.08612 0.71919
vt 0.08612 0.70852
vt 0.07544 0.62992
vt 0.07544 0.64059
vt 0.06276 0.64059
vt 0.06276 0.62992
vt 0.07544 0.65126
vt 0.06276 0.65126
vt 0.07544 0.66193
vt 0.06276 0.66193
vt 0.07544 0.61925
vt 0.06276 0.61925
vt 0.08612 0.62992
vt 0.08612 0.64059
vt 1.00000 0.28251
vt 1.00000 0.34839
vt 0.70838 0.34839
vt 0.70838 0.28251
vt 0.70838 0.27540
vt 1.00000 0.27540
vt 0.70838 0.24867
vt 0.70838 0.20320
vt 1.00000 0.20320
vt 1.00000 0.24867
vt 1.00000 0.42770
vt 1.00000 0.44126
vt 0.70838 0.44126
vt 0.70838 0.42770
vt 0.70838 0.17329
vt 1.00000 0.17329
vt 1.00000 0.18964
vt 0.70838 0.18964
vt 1.00000 0.35550
vt 0.70838 0.35550
vt 1.00000 0.38224
vt 0.70838 0.38224
vt 0.70838 0.13910
vt 1.00000 0.13910
vt 1.00000 0.45762
vt 0.70838 0.45762
vt 0.63380 0.95288
vt 0.74797 0.95288
vt 0.74797 0.98598
vt 0.63380 0.98598
vt 0.63380 0.93919
vt 0.74797 0.93919
vt 0.62011 0.98598
vt 0.62011 0.95288
vt 0.76166 0.95288
vt 0.76166 0.98598
vt 0.74797 0.99967
vt 0.63380 0.99967
vt 0.06276 0.68523
vt 0.07544 0.68523
vt 0.07544 0.69589
vt 0.06276 0.69589
vt 0.06276 0.67456
vt 0.07544 0.67456
vt 0.06276 0.66389
vt 0.07544 0.66389
vt 0.07544 0.70656
vt 0.06276 0.70656
vt 0.08612 0.69589
vt 0.08612 0.70656
vt 0.05067 0.59596
vt 0.06335 0.59596
vt 0.06335 0.60663
vt 0.05067 0.60663
vt 0.05067 0.58529
vt 0.06335 0.58529
vt 0.05067 0.57462
vt 0.06335 0.57462
vt 0.06335 0.61730
vt 0.05067 0.61730
vt 0.07402 0.60663
vt 0.07402 0.59596
vt 0.61812 0.76436
vt 0.08862 0.76436
vt 0.08862 0.67606
vt 0.61812 0.67606
vt 0.61812 0.91138
vt 0.08862 0.91138
vt 0.61812 0.99967
vt 0.08862 0.99967
vt 0.08862 0.52904
vt 0.61812 0.52904
vt 0.70642 0.76436
vt 0.70642 0.91138
vt 0.00033 0.91138
vt 0.00033 0.76436
vt 0.61812 0.20348
vt 0.61812 0.29177
vt 0.08862 0.29177
vt 0.08862 0.20348
vt 0.61812 0.43879
vt 0.08862 0.43879
vt 0.61812 0.52709
vt 0.08862 0.52709
vt 0.61812 0.05646
vt 0.08862 0.05646
vt 0.00033 0.43879
vt 0.00033 0.29177
vt 0.70642 0.29177
vt 0.70642 0.43879
# 152 texture vertices

usemtl Material2
f 1/4 2/3 14/2 13/1
f 1/4 3/6 4/5 2/3
f 5/10 6/9 8/8 7/7
f 20/14 19/13 21/12 22/11
f 4/5 3/6 6/9 5/10
f 10/18 12/17 11/16 9/15
f 13/1 14/2 16/20 15/19
f 18/22 17/21 19/13 20/14
f 18/22 15/19 16/20 17/21
f 23/24 11/16 12/17 24/23
f 22/11 21/12 23/26 24/25
f 7/7 8/8 10/18 9/15
f 25/30 26/29 27/28 28/27
f 30/32 27/28 26/29 31/31
f 31/34 26/29 25/30 32/33
f 29/36 28/27 27/28 30/35
f 32/38 25/30 28/27 29/37
f 33/42 35/41 36/40 34/39
f 35/41 39/44 40/43 36/40
f 39/44 37/46 38/45 40/43
f 37/48 33/42 34/39 38/47
f 40/50 38/47 34/39 36/49
f 41/54 43/53 44/52 42/51
f 43/53 47/56 48/55 44/52
f 47/56 45/58 46/57 48/55
f 45/60 41/54 42/51 46/59
f 48/62 46/61 42/51 44/52
f 57/66 69/65 70/64 58/63
f 57/66 58/63 60/68 59/67
f 61/72 63/71 64/70 62/69
f 76/76 78/75 77/74 75/73
f 60/68 61/72 62/69 59/67
f 66/80 65/79 67/78 68/77
f 69/65 71/82 72/81 70/64
f 74/84 76/76 75/73 73/83
f 74/84 73/83 72/81 71/82
f 79/86 80/85 68/77 67/78
f 78/75 80/88 79/87 77/74
f 63/71 65/79 66/80 64/70
f 81/92 84/91 83/90 82/89
f 86/94 87/93 82/89 83/90
f 87/96 88/95 81/92 82/89
f 85/98 86/97 83/90 84/91
f 88/100 85/99 84/91 81/92
f 89/104 90/103 92/102 91/101
f 91/101 92/102 96/106 95/105
f 95/105 96/106 94/108 93/107
f 93/110 94/109 90/103 89/104
f 96/112 92/111 90/103 94/109
f 97/116 98/115 100/114 99/113
f 99/113 100/114 104/118 103/117
f 103/117 104/118 102/120 101/119
f 101/122 102/121 98/115 97/116
f 104/124 100/114 98/115 102/123
f 49/128 50/127 52/126 51/125
f 51/125 52/126 56/130 55/129
f 55/129 56/130 54/132 53/131
f 53/134 54/133 50/127 49/128
f 51/125 55/129 53/136 49/135
f 56/130 52/126 50/138 54/137
f 105/142 107/141 108/140 106/139
f 107/141 111/144 112/143 108/140
f 111/144 109/146 110/145 112/143
f 109/148 105/142 106/139 110/147
f 107/141 105/150 109/149 111/144
f 112/143 110/152 106/151 108/140
# 66 elements

