# Created by Metasequoia

mtllib rail.mtl

v -1.168682 0.000289 -0.105664
v -1.168682 0.089615 -0.100796
v -1.168682 0.000289 0.105665
v -1.168682 0.089615 0.100797
v -0.571999 0.089621 -0.100804
v -0.334888 0.000229 0.105668
v -0.334888 0.073059 0.100800
v -0.571999 0.089621 0.100804
v -0.334888 0.000229 -0.105668
v -0.571999 0.000168 -0.105672
v -0.571998 0.000168 0.105672
v -0.334888 0.073059 -0.100800
v -0.819777 0.089923 -0.300000
v -0.819777 0.089923 0.300000
v -0.819777 0.104559 -0.300000
v -0.819777 0.104559 0.300000
v -0.768084 0.123359 0.300000
v -0.768084 0.123358 -0.300000
v -0.763598 0.216794 0.300000
v -0.763598 0.216794 -0.300000
v -0.787183 0.231684 0.300000
v -0.787183 0.231684 -0.300000
v -0.787183 0.265338 0.300000
v -0.787183 0.265338 -0.300000
v -0.684244 0.089923 -0.300000
v -0.684244 0.089923 0.300000
v -0.684244 0.104559 -0.300000
v -0.684244 0.104559 0.300000
v -0.735937 0.123359 0.300000
v -0.735938 0.123358 -0.300000
v -0.740424 0.216794 0.300000
v -0.740424 0.216794 -0.300000
v -0.716838 0.231684 0.300000
v -0.716839 0.231684 -0.300000
v -0.716838 0.265338 0.300000
v -0.716839 0.265338 -0.300000
v -0.603949 0.110116 0.049039
v -0.603949 0.110116 -0.049039
v -0.904033 0.110116 -0.049039
v -0.904033 0.110116 0.049039
v -0.904033 0.085860 0.049039
v -0.904033 0.085860 -0.049039
v -0.603949 0.085860 -0.049039
v -0.603949 0.085860 0.049039
v -0.849474 0.101738 -0.020275
v -0.849474 0.127835 -0.020275
v -0.829415 0.101738 -0.003580
v -0.829415 0.127835 -0.003580
v -0.866169 0.101738 -0.000216
v -0.866169 0.127835 -0.000216
v -0.846110 0.101738 0.016478
v -0.846110 0.127835 0.016478
v -0.659600 0.101738 -0.020348
v -0.659600 0.127835 -0.020348
v -0.640790 0.101738 -0.002258
v -0.640790 0.127835 -0.002258
v -0.677690 0.101738 -0.001538
v -0.677690 0.127835 -0.001538
v -0.658880 0.101738 0.016552
v -0.658880 0.127835 0.016552
v 1.168682 0.000289 -0.105664
v 1.168682 0.089615 -0.100797
v 1.168682 0.000289 0.105664
v 1.168682 0.089615 0.100796
v 0.571999 0.089621 -0.100804
v 0.334888 0.000229 0.105668
v 0.334888 0.073059 0.100800
v 0.571999 0.089621 0.100804
v 0.334888 0.000229 -0.105668
v 0.571998 0.000168 -0.105672
v 0.571999 0.000168 0.105672
v 0.334888 0.073059 -0.100800
v 0.819777 0.089923 -0.300000
v 0.819777 0.089923 0.300000
v 0.819777 0.104559 -0.300000
v 0.819777 0.104559 0.300000
v 0.768084 0.123359 0.300000
v 0.768084 0.123358 -0.300000
v 0.763598 0.216794 0.300000
v 0.763598 0.216794 -0.300000
v 0.787183 0.231684 0.300000
v 0.787183 0.231684 -0.300000
v 0.787183 0.265338 0.300000
v 0.787183 0.265338 -0.300000
v 0.684244 0.089923 -0.300000
v 0.684244 0.089923 0.300000
v 0.684244 0.104559 -0.300000
v 0.684244 0.104559 0.300000
v 0.735938 0.123359 0.300000
v 0.735937 0.123358 -0.300000
v 0.740424 0.216794 0.300000
v 0.740424 0.216794 -0.300000
v 0.716839 0.231684 0.300000
v 0.716838 0.231684 -0.300000
v 0.716839 0.265338 0.300000
v 0.716838 0.265338 -0.300000
v 0.603949 0.110116 0.049038
v 0.603949 0.110116 -0.049039
v 0.904033 0.110116 -0.049039
v 0.904033 0.110116 0.049038
v 0.904033 0.085860 0.049038
v 0.904033 0.085860 -0.049039
v 0.603949 0.085860 -0.049039
v 0.603949 0.085860 0.049038
v 0.849474 0.101738 -0.020276
v 0.849474 0.127835 -0.020276
v 0.829415 0.101738 -0.003581
v 0.829415 0.127835 -0.003581
v 0.866169 0.101738 -0.000217
v 0.866169 0.127835 -0.000217
v 0.846110 0.101738 0.016478
v 0.846110 0.127835 0.016478
v 0.659600 0.101738 -0.020349
v 0.659600 0.127835 -0.020349
v 0.640790 0.101738 -0.002258
v 0.640790 0.127835 -0.002258
v 0.677690 0.101738 -0.001539
v 0.677690 0.127835 -0.001539
v 0.658880 0.101738 0.016551
v 0.658880 0.127835 0.016551
# 120 vertices

vt 0.68524 0.49470
vt 0.91954 0.49470
vt 0.91954 0.52769
vt 0.68524 0.52769
vt 0.96306 0.91573
vt 0.99850 0.91573
vt 0.99850 0.99850
vt 0.96306 0.99850
vt 0.59202 0.56559
vt 0.32902 0.56559
vt 0.32902 0.53260
vt 0.59202 0.53260
vt 0.36731 0.91573
vt 0.63269 0.91573
vt 0.63269 0.99850
vt 0.36731 0.99850
vt 0.68524 0.56559
vt 0.68524 0.53260
vt 0.91954 0.53260
vt 0.91954 0.56559
vt 0.59202 0.52769
vt 0.32902 0.52769
vt 0.32902 0.49470
vt 0.59202 0.49470
vt 0.72664 0.91573
vt 0.72664 0.99850
vt 0.23580 0.52769
vt 0.23580 0.49470
vt 0.68994 0.91272
vt 0.59599 0.91272
vt 0.59599 0.83304
vt 0.68994 0.83304
vt 0.92577 0.91272
vt 0.92577 0.83304
vt 0.38402 0.82893
vt 0.33045 0.82893
vt 0.33045 0.59179
vt 0.38402 0.59179
vt 0.38981 0.59179
vt 0.38981 0.82893
vt 0.41155 0.59179
vt 0.44852 0.59179
vt 0.44852 0.82893
vt 0.41155 0.82893
vt 0.26596 0.82893
vt 0.25493 0.82893
vt 0.25493 0.59179
vt 0.26596 0.59179
vt 0.47284 0.59179
vt 0.47284 0.82893
vt 0.45954 0.82893
vt 0.45954 0.59179
vt 0.32467 0.82893
vt 0.32467 0.59179
vt 0.30293 0.82893
vt 0.30293 0.59179
vt 0.50064 0.59179
vt 0.50064 0.82893
vt 0.24163 0.82893
vt 0.24163 0.59179
vt 0.51322 0.81934
vt 0.51322 0.78058
vt 0.63182 0.78058
vt 0.63182 0.81934
vt 0.63182 0.77099
vt 0.51322 0.77099
vt 0.64141 0.81934
vt 0.64141 0.78058
vt 0.50363 0.78058
vt 0.50363 0.81934
vt 0.51322 0.82893
vt 0.63182 0.82893
vt 0.96568 0.89209
vt 0.97600 0.89209
vt 0.97600 0.90240
vt 0.96568 0.90240
vt 0.96568 0.88177
vt 0.97600 0.88177
vt 0.96568 0.87146
vt 0.97600 0.87146
vt 0.97600 0.91272
vt 0.96568 0.91272
vt 0.98631 0.88177
vt 0.98631 0.89209
vt 0.94939 0.86684
vt 0.94939 0.85652
vt 0.95970 0.85652
vt 0.95970 0.86684
vt 0.93907 0.86684
vt 0.93907 0.85652
vt 0.92876 0.86684
vt 0.92876 0.85652
vt 0.97002 0.85652
vt 0.97002 0.86684
vt 0.92876 0.84621
vt 0.93907 0.84621
vt 0.00150 0.99850
vt 0.00150 0.91573
vt 0.03694 0.91573
vt 0.03694 0.99850
vt 0.00150 0.53260
vt 0.23580 0.53260
vt 0.23580 0.56559
vt 0.00150 0.56559
vt 0.27336 0.99850
vt 0.27336 0.91573
vt 0.00150 0.52769
vt 0.00150 0.49470
vt 0.33127 0.83304
vt 0.33127 0.91272
vt 0.23733 0.91272
vt 0.23733 0.83304
vt 0.00150 0.91272
vt 0.00150 0.83304
vt 0.00150 0.65873
vt 0.23864 0.65873
vt 0.23864 0.71230
vt 0.00150 0.71230
vt 0.23864 0.71808
vt 0.00150 0.71808
vt 0.23864 0.77680
vt 0.00150 0.77680
vt 0.00150 0.73983
vt 0.23864 0.73983
vt 0.00150 0.58321
vt 0.23864 0.58321
vt 0.23864 0.59424
vt 0.00150 0.59424
vt 0.23864 0.78782
vt 0.23864 0.80112
vt 0.00150 0.80112
vt 0.00150 0.78782
vt 0.00150 0.65295
vt 0.23864 0.65295
vt 0.23864 0.63121
vt 0.00150 0.63121
vt 0.00150 0.82892
vt 0.23864 0.82892
vt 0.00150 0.56991
vt 0.23864 0.56991
vt 0.77259 0.81935
vt 0.65399 0.81935
vt 0.65399 0.78058
vt 0.77259 0.78058
vt 0.77259 0.82893
vt 0.65399 0.82893
vt 0.78218 0.78058
vt 0.78218 0.81935
vt 0.64440 0.81935
vt 0.64440 0.78058
vt 0.65399 0.77100
vt 0.77259 0.77100
vt 0.93907 0.88178
vt 0.93907 0.89209
vt 0.92876 0.89209
vt 0.92876 0.88178
vt 0.93907 0.90241
vt 0.92876 0.90241
vt 0.93907 0.91272
vt 0.92876 0.91272
vt 0.93907 0.87146
vt 0.92876 0.87146
vt 0.94939 0.89209
vt 0.94939 0.90241
vt 0.95238 0.90241
vt 0.95238 0.89209
vt 0.96270 0.89209
vt 0.96270 0.90241
vt 0.95238 0.88178
vt 0.96270 0.88178
vt 0.95238 0.87146
vt 0.96270 0.87146
vt 0.95238 0.91272
vt 0.96270 0.91272
vt 0.94207 0.88178
vt 0.94207 0.87146
# 176 texture vertices

usemtl Material2
f 71/4 63/3 64/2 68/1
f 3/8 4/7 2/6 1/5
f 12/12 72/11 69/10 9/9
f 66/16 6/15 9/14 69/13
f 1/20 2/19 5/18 10/17
f 67/24 7/23 6/22 66/21
f 6/15 11/26 10/25 9/14
f 6/22 7/23 8/28 11/27
f 8/32 7/31 12/30 5/29
f 10/17 5/18 12/12 9/9
f 11/26 3/8 1/5 10/25
f 4/34 8/32 5/29 2/33
f 13/38 25/37 26/36 14/35
f 13/38 14/35 16/40 15/39
f 17/44 19/43 20/42 18/41
f 32/48 34/47 33/46 31/45
f 16/40 17/44 18/41 15/39
f 22/52 21/51 23/50 24/49
f 25/37 27/54 28/53 26/36
f 30/56 32/48 31/45 29/55
f 30/56 29/55 28/53 27/54
f 35/58 36/57 24/49 23/50
f 34/47 36/60 35/59 33/46
f 19/43 21/51 22/52 20/42
f 37/64 38/63 39/62 40/61
f 42/66 39/62 38/63 43/65
f 43/68 38/63 37/64 44/67
f 41/70 40/61 39/62 42/69
f 44/72 37/64 40/61 41/71
f 45/76 46/75 48/74 47/73
f 47/73 48/74 52/78 51/77
f 51/77 52/78 50/80 49/79
f 49/82 50/81 46/75 45/76
f 52/78 48/74 46/84 50/83
f 53/88 54/87 56/86 55/85
f 55/85 56/86 60/90 59/89
f 59/89 60/90 58/92 57/91
f 57/94 58/93 54/87 53/88
f 60/90 56/96 54/95 58/92
f 63/100 61/99 62/98 64/97
f 61/104 70/103 65/102 62/101
f 66/16 69/13 70/106 71/105
f 66/21 71/4 68/1 67/24
f 8/28 4/108 3/107 11/27
f 68/112 65/111 72/110 67/109
f 70/103 69/10 72/11 65/102
f 70/106 61/99 63/100 71/105
f 64/114 62/113 65/111 68/112
f 73/118 74/117 86/116 85/115
f 73/118 75/120 76/119 74/117
f 77/124 78/123 80/122 79/121
f 92/128 91/127 93/126 94/125
f 76/119 75/120 78/123 77/124
f 82/132 84/131 83/130 81/129
f 85/115 86/116 88/134 87/133
f 90/136 89/135 91/127 92/128
f 90/136 87/133 88/134 89/135
f 95/138 83/130 84/131 96/137
f 94/125 93/126 95/140 96/139
f 79/121 80/122 82/132 81/129
f 97/144 100/143 99/142 98/141
f 102/146 103/145 98/141 99/142
f 103/148 104/147 97/144 98/141
f 101/150 102/149 99/142 100/143
f 104/152 101/151 100/143 97/144
f 105/156 107/155 108/154 106/153
f 107/155 111/158 112/157 108/154
f 111/158 109/160 110/159 112/157
f 109/162 105/156 106/153 110/161
f 112/157 110/164 106/163 108/154
f 113/168 115/167 116/166 114/165
f 115/167 119/170 120/169 116/166
f 119/170 117/172 118/171 120/169
f 117/174 113/168 114/165 118/173
f 120/169 118/171 114/176 116/175
f 7/31 67/109 72/110 12/30
# 76 elements

