<svg xmlns="http://www.w3.org/2000/svg" viewBox="0 0 96 96" fill="none">
  <defs>
    <linearGradient id="tile" x1="12" y1="0" x2="80" y2="96" gradientUnits="userSpaceOnUse"><stop stop-color="#42474f"/><stop offset="1" stop-color="#202328"/></linearGradient>
    <linearGradient id="body" x1="27" y1="18" x2="70" y2="74" gradientUnits="userSpaceOnUse"><stop stop-color="#f2f4f7"/><stop offset=".5" stop-color="#c5cbd3"/><stop offset="1" stop-color="#89939f"/></linearGradient>
    <linearGradient id="glass" x1="32" y1="29" x2="59" y2="50" gradientUnits="userSpaceOnUse"><stop stop-color="#485361"/><stop offset="1" stop-color="#1b222b"/></linearGradient>
  </defs>
  <rect width="96" height="96" rx="12" fill="url(#tile)"/>
  <rect x=".5" y=".5" width="95" height="95" rx="11.5" stroke="#fff" stroke-opacity=".07"/>
  <ellipse cx="48" cy="78" rx="26" ry="5" fill="#11151a" fill-opacity=".45"/>
  <!-- Track and wheels stay legible at small thumbnail sizes. -->
  <path d="m36 69-9 15m33-15 9 15M32 78h32" stroke="#a5aeb9" stroke-width="2.5" stroke-linecap="round"/>
  <rect x="31" y="64" width="9" height="12" rx="3" fill="#151b22"/>
  <rect x="56" y="64" width="9" height="12" rx="3" fill="#151b22"/>
  <!-- Rounded metro cab with a panoramic windscreen and low nose. -->
  <path d="M26 33c0-12 7-17 22-17s22 5 22 17v27c0 9-7 14-22 14S26 69 26 60V33Z" fill="url(#body)" stroke="#e1e5eb" stroke-width="1.2"/>
  <rect x="39" y="21" width="18" height="4" rx="2" fill="#343e49"/>
  <path d="M31 35c0-5 3-7 8-7h18c5 0 8 2 8 7v11c0 3-2 5-5 5H36c-3 0-5-2-5-5V35Z" fill="url(#glass)"/>
  <path d="M48 29v21" stroke="#8d99a6" stroke-width="1.5"/>
  <path d="m35 39 7-7m-7 13 13-13" stroke="#c6d2df" stroke-opacity=".13" stroke-width="2" stroke-linecap="round"/>
  <path d="M29 54c12 3 26 3 38 0" stroke="#525d6b" stroke-width="3"/>
  <path d="M31 62h7m20 0h7" stroke="#f9fbff" stroke-width="3.5" stroke-linecap="round"/>
  <path d="M41 66h14" stroke="#66717f" stroke-width="2" stroke-linecap="round"/>
  <path d="M35 70c8 2 18 2 26 0" stroke="#f3f5f8" stroke-opacity=".5" stroke-linecap="round"/>
</svg>
